#N canvas 204 77 986 648 10;
#X obj 98 -153 gemhead;
#X obj 53 276 translateXYZ 0 -3 0;
#X msg 601 67 setRmin 0;
#X obj 528 263 tCircle2D;
#X msg 185 264 setX \$1;
#X msg 355 123 setY \$1;
#X msg 733 148 position2D \$1 \$2;
#X obj 147 331 == 0;
#X obj 664 8 loadbang;
#X obj 664 -15 r init;
#X obj 375 38 t f f f;
#X obj 174 32 t f f f;
#X obj 213 64 tabwrite posX;
#X obj 288 8 loadbang;
#X obj 288 -15 r init;
#X obj 288 38 f \$1;
#X obj 211 -103 inlet X;
#X obj 388 -55 inlet Y;
#X obj 493 2 loadbang;
#X obj 493 -21 r init;
#X obj 493 32 f \$1;
#X obj 419 70 tabwrite posY;
#X obj 798 78 tabread posX;
#X obj 884 78 tabread posY;
#X obj 786 -70 f;
#X obj 819 -62 + 1;
#X msg 818 -106 0;
#X obj 806 45 t f f;
#X obj 793 110 pack f f;
#X obj 145 -95 t a b;
#X obj 840 7 sel;
#X obj 854 -48 loadbang;
#X obj 854 -71 r init;
#X obj 854 -27 f \$1;
#X msg 713 282 add2 \$1;
#X msg 700 317 0 0 0 0 0 0 0 0 0;
#X msg 810 270 set;
#X obj 793 -143 t b b b;
#X floatatom 889 29 5 0 0 0 - - -;
#X obj 701 359 list-accum;
#X obj 684 415 tgl 15 0 empty empty empty 17 7 0 10 -262144 -1 -1 0
1;
#X obj 693 387 > 0;
#X obj 651 253 t b f;
#X obj 100 -33 alpha;
#X obj 91 540 colourRGB 1 1 1 0.8;
#X obj 139 409 line 0 2;
#X obj 156 439 pow 2;
#X obj 138 380 pack f 90;
#X obj 439 -88 inlet cor;
#X obj 374 202 unpack f f f;
#X obj 153 476 * 1;
#X obj 364 286 t f f;
#X obj 194 485 * 1;
#X obj 412 287 t f f;
#X obj 102 573 circle 0.5;
#X msg 698 82 setRmax 1;
#X obj 804 385 loadbang;
#X obj 804 362 r init;
#X obj 804 415 f \$1;
#X obj 753 496 tabwrite col;
#X obj 769 -114 uzi 10;
#X obj 380 -1 line 0 2;
#X obj 200 -25 line 0 2;
#X obj 202 -53 pack 0 15;
#X obj 380 -26 pack 0 15;
#X connect 0 0 29 0;
#X connect 1 0 44 0;
#X connect 2 0 3 0;
#X connect 3 0 42 0;
#X connect 4 0 3 0;
#X connect 5 0 3 0;
#X connect 6 0 3 0;
#X connect 7 0 47 0;
#X connect 8 0 2 0;
#X connect 8 0 55 0;
#X connect 9 0 8 0;
#X connect 10 0 1 2;
#X connect 10 1 5 0;
#X connect 10 2 21 0;
#X connect 11 0 1 1;
#X connect 11 1 4 0;
#X connect 11 2 12 0;
#X connect 13 0 15 0;
#X connect 14 0 13 0;
#X connect 15 0 12 1;
#X connect 16 0 63 0;
#X connect 17 0 64 0;
#X connect 18 0 20 0;
#X connect 19 0 18 0;
#X connect 20 0 21 1;
#X connect 22 0 28 0;
#X connect 23 0 28 1;
#X connect 24 0 25 0;
#X connect 24 0 30 0;
#X connect 25 0 24 1;
#X connect 26 0 24 1;
#X connect 27 0 22 0;
#X connect 27 1 23 0;
#X connect 28 0 6 0;
#X connect 29 0 43 0;
#X connect 29 1 37 0;
#X connect 30 1 27 0;
#X connect 31 0 33 0;
#X connect 32 0 31 0;
#X connect 33 0 30 1;
#X connect 34 0 35 0;
#X connect 35 0 39 0;
#X connect 36 0 35 0;
#X connect 37 0 60 0;
#X connect 37 1 26 0;
#X connect 37 2 36 0;
#X connect 39 0 41 0;
#X connect 40 0 59 0;
#X connect 41 0 40 0;
#X connect 41 0 7 0;
#X connect 42 0 35 0;
#X connect 42 1 34 0;
#X connect 43 0 1 0;
#X connect 44 0 54 0;
#X connect 45 0 46 0;
#X connect 46 0 50 0;
#X connect 46 0 52 0;
#X connect 47 0 45 0;
#X connect 48 0 49 0;
#X connect 49 0 44 1;
#X connect 49 1 51 0;
#X connect 49 2 53 0;
#X connect 50 0 44 2;
#X connect 51 0 50 1;
#X connect 51 1 44 2;
#X connect 52 0 44 3;
#X connect 53 0 52 1;
#X connect 53 1 44 3;
#X connect 55 0 3 0;
#X connect 56 0 58 0;
#X connect 57 0 56 0;
#X connect 58 0 59 1;
#X connect 60 0 24 0;
#X connect 61 0 10 0;
#X connect 62 0 11 0;
#X connect 63 0 62 0;
#X connect 64 0 61 0;
