#N canvas 26 243 1270 598 10;
#X msg 92 35 destroy;
#X obj 30 75 table posX 10;
#X obj 29 109 table posY 10;
#X obj 51 213 s init;
#X obj 72 181 bng 15 250 50 0 empty empty empty 17 7 0 10 -262144 -1
-1;
#X obj 158 108 gemwin;
#X floatatom 305 400 5 0 0 0 - - -;
#X floatatom 265 400 5 0 0 0 - - -;
#X floatatom 206 423 5 0 0 0 - - -;
#X floatatom 171 424 5 0 0 0 - - -;
#X obj 295 338 tgl 15 0 empty empty empty 17 7 0 10 -262144 -1 -1 0
1;
#X obj 187 357 tgl 15 0 empty empty empty 17 7 0 10 -262144 -1 -1 0
1;
#X obj 294 361 MoveRand3;
#X obj 186 380 MoveRand3;
#X obj 798 30 netreceive 3335;
#X floatatom 885 57 5 0 0 0 - - -;
#X obj 72 271 unpack f f;
#X floatatom 89 366 5 0 0 0 - - -;
#X obj 72 249 route pos cor;
#X floatatom 52 365 5 0 0 0 - - -;
#N canvas 755 190 450 300 connection 0;
#X obj 93 159 tgl 15 0 empty empty empty 17 7 0 10 -262144 -1 -1 1
1;
#X obj 309 187 sel 1;
#X obj 79 126 netsend 1;
#X msg 31 28 disconnect;
#X msg 79 63 connect 255.255.255.255 3340;
#X msg 279 229 send \$1 colide bang;
#X obj 284 40 f;
#X obj 286 68 mod 10;
#X obj 271 147 f;
#X obj 282 115 t f f;
#X obj 289 -27 tgl 15 0 empty empty empty 17 7 0 10 -262144 -1 -1 1
1;
#X obj 325 145 tabread col;
#X obj 315 37 + 1;
#X obj 286 4 metro 10;
#X obj 357 75 mod 10;
#X floatatom 359 52 5 0 0 0 - - -;
#X floatatom 357 98 5 0 0 0 - - -;
#X connect 1 0 8 0;
#X connect 2 0 0 0;
#X connect 3 0 2 0;
#X connect 4 0 2 0;
#X connect 5 0 2 0;
#X connect 6 0 7 0;
#X connect 6 0 12 0;
#X connect 7 0 9 0;
#X connect 8 0 5 0;
#X connect 9 0 11 0;
#X connect 9 1 8 1;
#X connect 10 0 13 0;
#X connect 11 0 1 0;
#X connect 12 0 6 1;
#X connect 13 0 6 0;
#X connect 14 0 16 0;
#X connect 15 0 14 0;
#X restore 563 66 pd connection;
#X msg 156 16 reset \, dimen 1024 768 \, offset 1280 0 \, border 0
\, FSAA 8 \, create \, 1;
#X obj 28 145 table col 10;
#X obj 179 277 unpack f f;
#X obj 179 255 route pos cor;
#X msg 247 57 reset \, dimen 1024 768 \, FSAA 10 \, create \, 1;
#X obj 277 269 unpack f f;
#X obj 277 247 route pos cor;
#X obj 286 449 bola 2;
#X obj 798 89 route xis mick abreu ana jo tomas andre sofia paulo jimmy
;
#X obj 71 440 bola 0;
#X obj 188 463 bola 1;
#X floatatom 739 397 5 0 0 0 - - -;
#X floatatom 699 397 5 0 0 0 - - -;
#X floatatom 640 420 5 0 0 0 - - -;
#X floatatom 605 421 5 0 0 0 - - -;
#X obj 729 335 tgl 15 0 empty empty empty 17 7 0 10 -262144 -1 -1 1
1;
#X obj 621 354 tgl 15 0 empty empty empty 17 7 0 10 -262144 -1 -1 1
1;
#X obj 728 358 MoveRand3;
#X obj 620 377 MoveRand3;
#X obj 506 268 unpack f f;
#X floatatom 523 363 5 0 0 0 - - -;
#X obj 506 246 route pos cor;
#X floatatom 486 362 5 0 0 0 - - -;
#X obj 613 274 unpack f f;
#X obj 613 252 route pos cor;
#X obj 711 266 unpack f f;
#X obj 711 244 route pos cor;
#X floatatom 1070 398 5 0 0 0 - - -;
#X floatatom 1030 398 5 0 0 0 - - -;
#X floatatom 971 421 5 0 0 0 - - -;
#X floatatom 936 422 5 0 0 0 - - -;
#X obj 1060 336 tgl 15 0 empty empty empty 17 7 0 10 -262144 -1 -1
1 1;
#X obj 952 355 tgl 15 0 empty empty empty 17 7 0 10 -262144 -1 -1 1
1;
#X obj 1059 359 MoveRand3;
#X obj 951 378 MoveRand3;
#X obj 837 269 unpack f f;
#X floatatom 854 364 5 0 0 0 - - -;
#X obj 837 247 route pos cor;
#X floatatom 817 363 5 0 0 0 - - -;
#X obj 944 275 unpack f f;
#X obj 944 253 route pos cor;
#X obj 1042 267 unpack f f;
#X obj 1042 245 route pos cor;
#X floatatom 414 402 5 0 0 0 - - -;
#X floatatom 374 402 5 0 0 0 - - -;
#X obj 404 340 tgl 15 0 empty empty empty 17 7 0 10 -262144 -1 -1 1
1;
#X obj 403 363 MoveRand3;
#X obj 386 271 unpack f f;
#X obj 386 249 route pos cor;
#X obj 505 437 bola 4;
#X obj 622 460 bola 5;
#X obj 720 446 bola 6;
#X obj 836 438 bola 7;
#X obj 953 461 bola 8;
#X obj 1051 447 bola 9;
#X obj 395 451 bola 3;
#X obj 519 315 tgl 15 0 empty empty empty 17 7 0 10 -262144 -1 -1 1
1;
#X obj 518 338 MoveRand3;
#X obj 847 311 tgl 15 0 empty empty empty 17 7 0 10 -262144 -1 -1 1
1;
#X obj 846 334 MoveRand3;
#X connect 0 0 5 0;
#X connect 4 0 3 0;
#X connect 6 0 28 1;
#X connect 7 0 28 0;
#X connect 8 0 31 1;
#X connect 9 0 31 0;
#X connect 10 0 12 0;
#X connect 11 0 13 0;
#X connect 12 0 28 0;
#X connect 12 1 28 1;
#X connect 13 0 31 0;
#X connect 13 1 31 1;
#X connect 14 0 29 0;
#X connect 14 1 15 0;
#X connect 16 0 30 0;
#X connect 16 1 30 1;
#X connect 17 0 30 1;
#X connect 18 0 16 0;
#X connect 18 2 30 2;
#X connect 19 0 30 0;
#X connect 21 0 5 0;
#X connect 23 0 31 0;
#X connect 23 1 31 1;
#X connect 24 0 23 0;
#X connect 24 1 31 2;
#X connect 25 0 5 0;
#X connect 26 0 28 0;
#X connect 26 1 28 1;
#X connect 27 0 26 0;
#X connect 27 2 28 2;
#X connect 29 0 18 0;
#X connect 29 1 24 0;
#X connect 29 2 27 0;
#X connect 29 3 69 0;
#X connect 29 4 42 0;
#X connect 29 5 45 0;
#X connect 29 6 47 0;
#X connect 29 7 58 0;
#X connect 29 8 61 0;
#X connect 29 9 63 0;
#X connect 32 0 72 1;
#X connect 33 0 72 0;
#X connect 34 0 71 1;
#X connect 35 0 71 0;
#X connect 36 0 38 0;
#X connect 37 0 39 0;
#X connect 38 0 72 0;
#X connect 38 1 72 1;
#X connect 39 0 71 0;
#X connect 39 1 71 1;
#X connect 40 0 70 0;
#X connect 40 1 70 1;
#X connect 41 0 70 1;
#X connect 42 0 40 0;
#X connect 42 2 70 2;
#X connect 43 0 70 0;
#X connect 44 0 71 0;
#X connect 44 1 71 1;
#X connect 45 0 44 0;
#X connect 45 1 71 2;
#X connect 46 0 72 0;
#X connect 46 1 72 1;
#X connect 47 0 46 0;
#X connect 47 2 72 2;
#X connect 48 0 75 1;
#X connect 49 0 75 0;
#X connect 50 0 74 1;
#X connect 51 0 74 0;
#X connect 52 0 54 0;
#X connect 53 0 55 0;
#X connect 54 0 75 0;
#X connect 54 1 75 1;
#X connect 55 0 74 0;
#X connect 55 1 74 1;
#X connect 56 0 73 0;
#X connect 56 1 73 1;
#X connect 57 0 73 1;
#X connect 58 0 56 0;
#X connect 58 2 73 2;
#X connect 59 0 73 0;
#X connect 60 0 74 0;
#X connect 60 1 74 1;
#X connect 61 0 60 0;
#X connect 61 1 74 2;
#X connect 62 0 75 0;
#X connect 62 1 75 1;
#X connect 63 0 62 0;
#X connect 63 2 75 2;
#X connect 64 0 76 1;
#X connect 65 0 76 0;
#X connect 66 0 67 0;
#X connect 67 0 76 0;
#X connect 67 1 76 1;
#X connect 68 0 76 0;
#X connect 68 1 76 1;
#X connect 69 0 68 0;
#X connect 69 2 76 2;
#X connect 77 0 78 0;
#X connect 78 0 70 0;
#X connect 78 1 70 1;
#X connect 79 0 80 0;
#X connect 80 0 73 0;
#X connect 80 1 73 1;
