#N canvas 1 138 1270 598 10;
#X msg 92 35 destroy;
#X obj 30 75 table posX 10;
#X obj 29 109 table posY 10;
#X obj 51 213 s init;
#X obj 72 181 bng 15 250 50 0 empty empty empty 17 7 0 10 -262144 -1
-1;
#X floatatom 252 354 5 0 0 0 - - -;
#X floatatom 174 350 5 0 0 0 - - -;
#X floatatom 396 352 5 0 0 0 - - -;
#X floatatom 318 348 5 0 0 0 - - -;
#X floatatom 530 363 5 0 0 0 - - -;
#X floatatom 452 359 5 0 0 0 - - -;
#X floatatom 660 372 5 0 0 0 - - -;
#X floatatom 582 368 5 0 0 0 - - -;
#X obj 158 108 gemwin;
#X floatatom 248 227 5 0 0 0 - - -;
#X floatatom 170 223 5 0 0 0 - - -;
#X floatatom 399 227 5 0 0 0 - - -;
#X floatatom 321 223 5 0 0 0 - - -;
#X floatatom 525 235 5 0 0 0 - - -;
#X floatatom 447 231 5 0 0 0 - - -;
#X floatatom 650 239 5 0 0 0 - - -;
#X floatatom 572 235 5 0 0 0 - - -;
#X obj 189 176 MoveRand3;
#X obj 190 153 tgl 15 0 empty empty empty 17 7 0 10 -262144 -1 -1 1
1;
#X obj 337 149 tgl 15 0 empty empty empty 17 7 0 10 -262144 -1 -1 1
1;
#X obj 473 155 tgl 15 0 empty empty empty 17 7 0 10 -262144 -1 -1 1
1;
#X obj 603 161 tgl 15 0 empty empty empty 17 7 0 10 -262144 -1 -1 1
1;
#X obj 201 283 tgl 15 0 empty empty empty 17 7 0 10 -262144 -1 -1 1
1;
#X obj 348 295 tgl 15 0 empty empty empty 17 7 0 10 -262144 -1 -1 1
1;
#X obj 484 302 tgl 15 0 empty empty empty 17 7 0 10 -262144 -1 -1 1
1;
#X obj 610 308 tgl 15 0 empty empty empty 17 7 0 10 -262144 -1 -1 1
1;
#X obj 336 172 MoveRand3;
#X obj 472 178 MoveRand3;
#X obj 602 184 MoveRand3;
#X obj 200 306 MoveRand3;
#X obj 347 316 MoveRand3;
#X obj 483 323 MoveRand3;
#X obj 609 329 MoveRand3;
#X msg 156 16 reset \, dimen 1280 800 \, FSAA 8 create \, 1;
#X msg 247 57 reset \, dimen 800 600 \, FSAA 8 \, create \, 1;
#X obj 838 30 netreceive 3335;
#X floatatom 925 57 5 0 0 0 - - -;
#X obj 790 231 unpack f f;
#X floatatom 855 294 5 0 0 0 - - -;
#X obj 198 255 bola 0;
#X obj 817 99 route xis mick abreu;
#X obj 798 180 route pos cor;
#X floatatom 919 213 5 0 0 0 - - -;
#N canvas 274 328 450 300 connection 1;
#X obj 107 135 netsend;
#X msg 93 65 connect 192.168.1.67 3340;
#X obj 121 168 tgl 15 0 empty empty empty 17 7 0 10 -262144 -1 -1 1
1;
#X obj 309 90 r col-8;
#X obj 304 147 tgl 15 0 empty empty empty 17 7 0 10 -262144 -1 -1 0
1;
#X msg 279 229 send colide bang;
#X obj 309 187 sel 1;
#X connect 0 0 2 0;
#X connect 1 0 0 0;
#X connect 3 0 4 0;
#X connect 4 0 6 0;
#X connect 5 0 0 0;
#X connect 6 0 5 0;
#X restore 1063 137 pd connection;
#X obj 797 334 bola 8;
#X obj 206 382 bola 4;
#X obj 350 380 bola 5;
#X obj 484 391 bola 6;
#X obj 615 400 bola 7;
#X obj 352 255 bola 1;
#X obj 479 263 bola 2;
#X obj 604 267 bola 3;
#X connect 0 0 13 0;
#X connect 4 0 3 0;
#X connect 5 0 50 1;
#X connect 6 0 50 0;
#X connect 7 0 51 1;
#X connect 8 0 51 0;
#X connect 9 0 52 1;
#X connect 10 0 52 0;
#X connect 11 0 53 1;
#X connect 12 0 53 0;
#X connect 14 0 44 1;
#X connect 15 0 44 0;
#X connect 16 0 54 1;
#X connect 17 0 54 0;
#X connect 18 0 55 1;
#X connect 19 0 55 0;
#X connect 20 0 56 1;
#X connect 21 0 56 0;
#X connect 22 0 44 0;
#X connect 22 1 44 1;
#X connect 23 0 22 0;
#X connect 24 0 31 0;
#X connect 25 0 32 0;
#X connect 26 0 33 0;
#X connect 27 0 34 0;
#X connect 28 0 35 0;
#X connect 29 0 36 0;
#X connect 30 0 37 0;
#X connect 31 0 54 0;
#X connect 31 1 54 1;
#X connect 32 0 55 0;
#X connect 32 1 55 1;
#X connect 33 0 56 0;
#X connect 33 1 56 1;
#X connect 34 0 50 0;
#X connect 34 1 50 1;
#X connect 35 0 51 0;
#X connect 35 1 51 1;
#X connect 36 0 52 0;
#X connect 36 1 52 1;
#X connect 37 0 53 0;
#X connect 37 1 53 1;
#X connect 38 0 13 0;
#X connect 39 0 13 0;
#X connect 40 0 45 0;
#X connect 40 1 41 0;
#X connect 42 0 49 0;
#X connect 42 1 49 1;
#X connect 43 0 49 1;
#X connect 45 0 46 0;
#X connect 46 0 42 0;
#X connect 46 2 49 2;
#X connect 47 0 49 0;
