#N canvas 1 77 527 481 10;
#X obj 153 358 outlet;
#X obj 220 361 outlet;
#X obj 164 294 line 0 2;
#X obj 224 294 line 0 2;
#X obj 154 -49 metro 1000;
#X obj 168 249 pack f f;
#X obj 60 132 random 1000;
#X obj 64 166 / 1000;
#X obj 62 194 * 8.66;
#X obj 59 225 - 4.33;
#X obj 86 -100 random 7000;
#X obj 117 93 random 7000;
#X obj 151 -20 t b b b b b;
#X obj 213 77 random 1000;
#X obj 217 111 / 1000;
#X obj 300 84 random 7000;
#X obj 274 231 pack f f;
#X obj 173 -98 inlet;
#X obj 213 170 * 6;
#X obj 246 211 - 3;
#X obj 85 -71 + 500;
#X obj 314 124 + 500;
#X obj 153 137 + 500;
#X connect 2 0 0 0;
#X connect 3 0 1 0;
#X connect 4 0 12 0;
#X connect 5 0 2 0;
#X connect 6 0 7 0;
#X connect 7 0 8 0;
#X connect 8 0 9 0;
#X connect 9 0 5 0;
#X connect 10 0 20 0;
#X connect 11 0 22 0;
#X connect 12 0 10 0;
#X connect 12 1 6 0;
#X connect 12 2 11 0;
#X connect 12 3 13 0;
#X connect 12 4 15 0;
#X connect 13 0 14 0;
#X connect 14 0 18 0;
#X connect 15 0 21 0;
#X connect 16 0 3 0;
#X connect 17 0 4 0;
#X connect 18 0 19 0;
#X connect 19 0 16 0;
#X connect 20 0 4 1;
#X connect 21 0 16 1;
#X connect 22 0 5 1;
